<?xml version="1.0" standalone="no"?>
<!DOCTYPE svg PUBLIC "-//W3C//DTD SVG 20010904//EN"
 "http://www.w3.org/TR/2001/REC-SVG-20010904/DTD/svg10.dtd">
<svg version="1.0" xmlns="http://www.w3.org/2000/svg"
 width="6000.000000pt" height="9000.000000pt" viewBox="0 0 1000.000000 1000.000000">
<path d="M 500 50 L 120 200 L 120 800 L 500 950 L 880 800 L 880 200 " fill="#29f"/>
<g transform="translate(50,1050) scale(0.08,-0.08)">
<path d="M7323 9861 c-117 -30 -247 -176 -349 -391 -91 -191 -138 -311 -177
-450 -50 -181 -48 -124 -45 -1310 l3 -1105 315 0 c372 0 519 7 530 25 4 7 11
535 14 1174 3 639 9 1335 12 1549 l6 387 -34 44 c-18 25 -49 52 -68 62 -39 19
-157 28 -207 15z" fill="#fff"/>

<path d="M8610 9861 c-98 -22 -207 -118 -286 -252 -58 -98 -114 -212 -114
-233 0 -8 -4 -17 -9 -20 -5 -3 -19 -38 -31 -78 -12 -40 -28 -89 -35 -108 -18
-51 -37 -127 -46 -190 -4 -30 -14 -91 -21 -135 l-14 -80 -108 -6 c-92 -4 -111
-8 -123 -25 -22 -29 -15 -790 7 -804 9 -6 229 -10 547 -10 470 0 533 2 547 16
14 14 16 110 16 911 l0 896 -26 34 c-47 62 -99 86 -189 89 -44 2 -96 -1 -115
-5z" fill="#fff"/>

<path d="M5530 8750 c-272 -4 -529 -10 -570 -14 -103 -9 -256 -35 -310 -52
-25 -8 -54 -14 -66 -14 -11 0 -43 -7 -70 -15 -27 -9 -71 -23 -99 -31 -27 -9
-59 -20 -70 -24 -11 -5 -65 -28 -120 -50 -55 -23 -104 -46 -109 -51 -6 -5 -16
-9 -22 -9 -7 0 -33 -13 -57 -30 -25 -16 -48 -30 -51 -30 -4 0 -25 -12 -49 -27
-23 -15 -50 -32 -59 -38 -90 -53 -254 -192 -373 -317 -151 -157 -156 -164
-275 -341 -60 -91 -200 -340 -200 -357 0 -4 -20 -49 -44 -101 -68 -147 -79
-173 -146 -344 -34 -88 -69 -176 -77 -195 -8 -19 -18 -44 -22 -55 -5 -11 -26
-65 -46 -120 -42 -113 -46 -121 -74 -189 -12 -27 -21 -53 -21 -58 0 -6 -6 -24
-14 -41 -7 -18 -20 -50 -29 -72 -8 -22 -29 -76 -47 -120 -48 -118 -81 -203
-147 -375 -33 -85 -93 -238 -133 -340 -130 -330 -122 -300 -123 -440 -2 -139
7 -168 79 -257 77 -94 179 -143 299 -143 128 0 224 48 338 169 53 56 79 95
121 184 70 145 86 183 86 195 0 6 6 23 14 39 8 15 22 48 31 73 10 25 23 59 30
75 7 17 20 48 28 70 8 22 38 94 65 160 28 66 57 140 65 165 14 40 25 70 56
145 5 11 18 41 30 66 11 25 21 51 21 58 0 6 4 19 10 29 19 36 68 157 176 440
14 37 32 81 39 97 7 17 30 71 51 120 20 50 45 108 55 130 10 22 30 69 44 105
57 140 208 417 245 450 4 3 31 37 62 75 55 70 172 183 238 229 126 90 306 186
420 226 36 12 72 25 80 28 32 12 226 57 310 72 30 6 351 13 712 16 569 6 660
9 670 22 10 11 14 111 16 402 3 345 2 388 -13 400 -21 17 -292 20 -955 10z" fill="#fff"/>

<path d="M5285 7420 c-55 -4 -116 -12 -135 -19 -19 -6 -47 -11 -62 -11 -15 0
-42 -6 -60 -14 -18 -8 -53 -22 -78 -32 -181 -70 -322 -167 -492 -337 -88 -89
-238 -286 -238 -313 0 -4 -6 -15 -13 -23 -15 -17 -125 -258 -177 -386 -18 -44
-39 -94 -46 -112 -8 -17 -14 -38 -14 -46 0 -9 -4 -18 -9 -21 -5 -3 -12 -18
-15 -33 -4 -16 -20 -59 -36 -98 -28 -68 -51 -128 -125 -325 -20 -52 -40 -104
-45 -115 -5 -11 -32 -76 -60 -145 -29 -69 -62 -147 -75 -175 -20 -45 -40 -101
-75 -208 -6 -22 -12 -80 -12 -130 0 -81 3 -100 29 -157 37 -81 113 -159 191
-196 49 -24 70 -28 147 -28 66 -1 103 5 140 19 112 43 201 119 280 240 49 75
64 105 116 223 11 26 25 56 30 67 4 11 18 45 29 75 11 30 24 64 29 75 22 51
74 181 117 290 41 107 64 163 94 230 5 11 18 43 30 70 25 60 29 68 74 168 20
42 36 80 36 84 0 6 76 159 112 223 28 52 87 138 118 174 38 43 143 126 160
126 6 0 24 7 40 15 49 26 202 33 698 36 442 3 474 4 492 22 19 17 20 33 20
401 l0 383 -52 7 c-69 8 -1034 5 -1163 -4z" fill="#fff"/>

<path d="M7822 7418 c-14 -14 -17 -413 -5 -652 6 -125 8 -138 27 -149 16 -9
148 -11 531 -9 281 2 519 6 530 9 11 3 23 11 27 17 4 6 8 185 8 397 l0 387
-22 6 c-13 3 -262 6 -553 6 -400 0 -534 -3 -543 -12z" fill="#fff"/>

<path d="M5610 6070 c-207 -11 -279 -18 -315 -34 -96 -43 -135 -67 -192 -121
-86 -81 -123 -168 -123 -289 0 -103 19 -158 83 -233 62 -73 132 -120 216 -147
64 -20 84 -21 626 -21 308 1 568 4 578 8 16 6 17 33 15 414 l-3 408 -40 7
c-59 12 -666 17 -845 8z" fill="#fff"/>

<path d="M7857 6073 c-19 -3 -31 -13 -39 -31 -15 -40 -5 -789 11 -805 9 -9
143 -12 549 -10 497 2 537 3 549 19 10 14 13 110 13 420 0 357 -2 403 -16 408
-17 7 -1022 6 -1067 -1z" fill="#fff"/>

<path d="M6757 6063 c-4 -3 -7 -192 -7 -419 l0 -413 37 -7 c47 -9 801 1 811
11 10 10 20 797 10 818 -8 16 -38 17 -427 17 -230 0 -421 -3 -424 -7z" fill="#fff"/>

</g>
</svg>
