<?xml version="1.0" standalone="no"?>
<!DOCTYPE svg PUBLIC "-//W3C//DTD SVG 20010904//EN"
 "http://www.w3.org/TR/2001/REC-SVG-20010904/DTD/svg10.dtd">
<svg version="1.0" xmlns="http://www.w3.org/2000/svg"
 width="495.000000pt" height="504.000000pt" viewBox="0 0 495.000000 504.000000"
 preserveAspectRatio="xMidYMid meet">

<g transform="translate(0.000000,504.000000) scale(0.100000,-0.100000)"
fill="#fff" stroke="none">
<path d="M0 2520 l0 -2520 2475 0 2475 0 0 2520 0 2520 -2475 0 -2475 0 0
-2520z m3909 2293 c0 -5 -53 -65 -117 -135 -64 -70 -182 -198 -262 -285 -213
-231 -463 -496 -646 -683 -165 -169 -365 -377 -468 -487 -33 -35 -63 -63 -69
-63 -5 0 -7 48 -3 123 3 67 9 197 12 290 6 162 5 167 -14 167 -16 0 -543 -526
-851 -850 l-43 -45 6 43 c4 23 19 91 35 150 66 249 65 253 -48 147 -88 -82
-195 -189 -326 -326 -74 -77 -80 -82 -84 -59 -8 60 46 310 111 505 57 174 143
345 259 519 53 79 76 123 70 129 -6 6 -66 12 -136 15 -69 3 -125 8 -125 12 0
18 301 226 454 314 218 126 572 289 727 334 19 6 72 22 119 36 47 15 144 42
216 61 72 19 139 37 148 41 22 8 21 -15 -3 -69 -33 -74 -92 -229 -117 -306
-38 -120 -12 -119 55 2 74 135 131 171 421 267 188 62 309 95 475 129 158 32
205 37 204 24z m-239 -740 c38 -201 51 -357 57 -683 4 -255 2 -346 -12 -480
-35 -347 -114 -645 -231 -871 -76 -148 -73 -151 -74 71 0 225 -20 462 -50 605
-37 180 -55 248 -65 252 -10 3 -99 -85 -345 -342 -63 -67 -223 -233 -356 -370
-132 -138 -281 -295 -331 -350 -50 -55 -112 -120 -137 -145 -46 -44 -46 -44
-65 -25 -11 11 -38 56 -62 100 -23 44 -77 143 -119 220 -94 171 -108 207 -87
238 25 37 239 260 676 706 229 233 419 428 422 433 3 5 102 107 220 226 118
120 281 289 362 375 82 86 155 157 162 157 8 0 20 -39 35 -117z m-1703 -3020
c18 -24 16 -89 -3 -118 -23 -36 -85 -35 -113 1 -11 14 -23 35 -26 46 -9 27 14
78 39 89 30 12 89 3 103 -18z m1484 -2 c37 -38 38 -79 3 -115 -65 -64 -148 -7
-129 90 11 59 78 72 126 25z m-882 -15 c132 -36 206 -134 232 -307 9 -66 9
-100 -1 -164 -26 -165 -77 -242 -196 -296 l-64 -29 -197 2 -197 3 -14 25 c-10
20 -12 103 -10 382 3 399 0 383 75 399 56 12 309 1 372 -15z m-1807 -23 c18
-21 42 -60 51 -88 10 -27 22 -59 27 -70 4 -11 20 -51 35 -90 28 -68 126 -298
165 -383 23 -48 26 -115 8 -129 -26 -20 -70 -24 -93 -9 -12 8 -38 45 -56 82
-45 90 -56 94 -234 87 -77 -3 -145 -10 -152 -15 -6 -5 -23 -33 -38 -63 -27
-57 -75 -105 -104 -105 -9 0 -27 7 -39 16 -27 18 -29 68 -6 129 8 22 26 71 39
109 14 38 43 103 66 144 23 41 65 138 95 216 62 165 95 206 163 206 32 0 44
-6 73 -37z m502 -179 c9 -3 16 -14 16 -24 0 -32 17 -32 66 0 40 25 58 30 112
30 124 0 191 -51 218 -168 16 -67 19 -384 4 -412 -13 -23 -63 -35 -90 -20 -35
18 -42 57 -44 220 -1 136 -3 159 -21 190 -27 44 -82 63 -149 48 -73 -15 -76
-24 -76 -238 0 -198 -3 -212 -49 -223 -37 -9 -71 10 -87 49 -12 29 -14 79 -12
271 l3 235 28 24 c28 24 52 29 81 18z m688 -16 c8 -16 13 -101 16 -270 5 -281
1 -303 -53 -314 -53 -10 -73 8 -81 73 -10 81 3 488 16 513 16 30 85 28 102 -2z
m1282 -3 c18 -17 26 -34 26 -59 0 -63 -4 -66 -90 -66 -115 0 -114 3 -120 -232
-5 -185 -6 -190 -29 -209 -39 -32 -83 -23 -106 22 -12 22 -15 77 -15 269 l0
241 25 25 c20 20 33 25 68 22 36 -3 42 -6 45 -28 5 -37 19 -45 32 -19 32 63
115 80 164 34z m444 -2 c17 -25 119 -279 137 -341 4 -13 12 -21 18 -19 17 5
65 100 94 187 55 164 77 200 120 200 29 0 73 -42 73 -69 0 -10 -18 -63 -39
-117 -22 -55 -56 -146 -76 -204 -48 -137 -78 -188 -121 -206 -95 -40 -139 3
-217 211 -131 352 -134 384 -40 385 23 0 37 -7 51 -27z m905 -7 c94 -46 168
-174 154 -263 -11 -64 -20 -67 -262 -68 -138 0 -150 -1 -153 -19 -5 -25 54
-84 99 -98 49 -14 100 -3 129 27 33 35 85 34 122 -2 15 -15 28 -37 28 -50 0
-48 -132 -113 -230 -113 -63 0 -118 19 -182 63 -44 30 -64 52 -83 93 -74 155
-54 294 56 388 90 77 218 94 322 42z m-1135 2 c8 -8 12 -60 12 -167 0 -86 5
-193 11 -237 11 -74 10 -86 -7 -120 -36 -73 -119 -69 -136 6 -13 53 1 513 15
522 19 12 92 9 105 -4z"/>
<path d="M2287 903 c-4 -3 -7 -118 -7 -255 0 -227 1 -249 18 -256 28 -11 184
-7 225 7 41 14 78 48 105 96 13 23 17 56 16 150 0 161 -16 204 -87 240 -45 22
-64 25 -157 25 -59 0 -110 -3 -113 -7z"/>
<path d="M652 803 c-6 -10 -13 -33 -17 -51 -4 -19 -20 -55 -37 -82 -22 -36
-29 -57 -26 -86 l3 -39 109 -3 109 -3 -6 33 c-3 19 -23 74 -45 123 -21 50 -42
98 -45 108 -4 9 -13 17 -21 17 -9 0 -19 -8 -24 -17z"/>
<path d="M4384 695 c-40 -18 -76 -62 -72 -89 3 -20 10 -21 137 -24 74 -1 140
0 147 2 19 7 5 41 -35 85 -36 39 -41 41 -92 40 -30 0 -68 -7 -85 -14z"/>
</g>
</svg>
