<?xml version="1.0" standalone="no"?>
<!DOCTYPE svg PUBLIC "-//W3C//DTD SVG 20010904//EN"
 "http://www.w3.org/TR/2001/REC-SVG-20010904/DTD/svg10.dtd">
<svg version="1.0" xmlns="http://www.w3.org/2000/svg"
 width="500.000000pt" height="500.000000pt" viewBox="0 0 500.000000 500.000000"
 preserveAspectRatio="xMidYMid meet">

<g transform="translate(0.000000,500.000000) scale(0.100000,-0.100000)"
fill="#f5a" stroke="white">
<path d="M1920 3950 c-222 -5 -239 -7 -308 -32 -88 -32 -190 -91 -254 -147
-60 -54 -141 -164 -173 -236 -55 -124 -57 -147 -58 -1060 -2 -936 -4 -913 67
-1052 73 -146 158 -234 299 -308 84 -45 129 -60 226 -76 73 -12 1516 -12 1615
1 226 29 400 150 501 351 83 166 80 132 80 1084 0 912 0 916 -57 1056 -53 133
-169 265 -292 334 -99 55 -170 76 -276 81 -154 7 -1115 9 -1370 4z m276 -396
c27 -21 68 -55 90 -76 l41 -40 42 21 c83 43 232 43 326 2 l43 -19 55 53 c55
54 129 100 141 88 10 -10 7 -161 -5 -229 -11 -62 -11 -62 24 -110 33 -46 227
-428 227 -446 0 -19 -19 5 -70 88 -30 48 -55 83 -57 78 -2 -6 20 -93 48 -194
118 -426 123 -455 56 -340 -60 104 -121 200 -127 200 -3 0 -6 -39 -8 -88 -4
-93 6 -133 40 -169 17 -18 18 -23 6 -23 -21 0 -67 37 -88 72 l-18 30 -28 -57
c-16 -31 -42 -71 -57 -88 l-28 -32 16 32 c15 33 47 155 41 160 -2 2 -26 -36
-55 -85 -28 -48 -72 -108 -98 -132 -39 -38 -43 -40 -24 -13 12 18 35 64 51
103 25 61 27 69 10 60 -32 -17 -35 -11 -8 18 33 34 87 165 93 229 l5 48 -13
-40 c-17 -49 -63 -142 -75 -149 -5 -3 -1 19 9 48 10 29 21 84 25 122 l7 69
-24 -21 c-13 -12 -34 -27 -46 -33 -31 -16 -88 -14 -103 4 -7 8 -21 15 -32 15
-17 0 -16 3 9 24 31 26 90 46 138 46 44 0 57 12 49 44 -6 24 -9 26 -43 20 -20
-3 -46 -12 -57 -20 -21 -13 -22 -12 -17 25 3 20 0 64 -7 97 l-12 59 -22 -60
c-12 -33 -28 -69 -34 -80 -12 -19 -13 -18 -7 5 5 22 4 22 -11 -5 -9 -16 -46
-64 -80 -106 -35 -43 -64 -85 -65 -95 -1 -11 -5 -6 -11 14 -12 35 -37 42 -58
17 -19 -23 -78 -19 -114 8 -61 46 -60 46 -53 -21 4 -34 15 -86 25 -116 10 -30
14 -52 9 -49 -12 7 -77 144 -77 162 0 8 -3 12 -6 9 -10 -10 15 -119 39 -172
13 -29 39 -69 57 -89 33 -38 33 -45 -1 -27 -26 15 -24 7 24 -92 l42 -87 -33
32 c-41 39 -108 135 -128 184 -8 19 -17 33 -20 30 -8 -7 24 -134 42 -170 l17
-32 -21 19 c-12 10 -38 51 -59 91 l-37 73 -18 -29 c-19 -31 -73 -69 -97 -69
-10 0 -4 11 15 31 28 29 29 33 32 147 2 64 1 114 -2 111 -3 -3 -42 -66 -87
-140 -79 -132 -80 -133 -74 -85 4 27 25 114 47 195 42 153 88 344 83 349 -1 1
-30 -44 -64 -100 -33 -57 -61 -98 -61 -92 0 38 160 374 223 464 l45 66 -14 64
c-21 100 -18 230 6 230 4 0 29 -16 56 -36z m1304 -518 c0 -24 -23 -41 -41 -30
-16 9 -10 42 9 47 30 8 32 7 32 -17z m100 -6 c0 -15 -7 -20 -25 -20 -18 0 -25
5 -25 20 0 15 7 20 25 20 18 0 25 -5 25 -20z m-2006 -16 c13 -5 16 -23 16 -90
l0 -84 -84 0 c-49 0 -88 4 -91 11 -13 20 5 57 31 66 18 6 30 20 38 43 6 19 22
40 36 47 29 15 33 15 54 7z m1904 -111 c-3 -31 -34 -44 -44 -19 -9 24 3 46 26
46 17 0 21 -5 18 -27z m102 -3 c0 -23 -4 -30 -20 -30 -11 0 -23 7 -26 15 -9
23 3 45 26 45 16 0 20 -7 20 -30z m-2 -238 c2 -18 10 -36 18 -39 19 -7 18 -23
-1 -23 -10 0 -15 -10 -15 -34 0 -36 5 -33 -147 -93 -10 -4 -13 19 -13 95 0 55
3 108 6 117 5 13 19 15 78 13 l71 -3 3 -33z m-1988 -95 c0 -94 -7 -107 -61
-107 -31 0 -38 4 -43 25 -5 21 -12 25 -41 25 l-35 0 0 63 c0 35 3 67 7 70 3 4
44 7 90 7 l83 0 0 -83z m79 -434 c5 -21 24 -92 42 -158 17 -66 35 -135 39
-152 l8 -33 -44 0 c-42 0 -44 1 -54 39 -9 35 -13 39 -38 37 -15 -2 -41 -4 -58
-5 -24 -1 -34 -8 -47 -36 -15 -32 -20 -35 -62 -35 -25 0 -45 2 -45 4 0 2 25
55 56 117 31 63 71 147 90 187 32 69 34 72 68 72 32 0 36 -3 45 -37z m244 0
c13 -21 36 -63 51 -93 48 -96 51 -93 61 43 l7 87 39 0 c24 0 39 -5 39 -12 1
-46 -24 -349 -29 -357 -9 -13 -54 -23 -68 -14 -6 5 -33 51 -60 102 -26 52 -53
96 -59 98 -8 3 -14 -30 -18 -97 l-8 -100 -39 0 c-38 0 -39 1 -39 38 0 20 5
106 12 190 l12 152 38 0 c33 0 41 -5 61 -37z m343 -30 c-3 -38 -8 -108 -11
-158 -10 -155 -10 -155 -53 -155 l-37 0 12 168 c6 92 12 177 12 190 1 19 6 22
42 22 l42 0 -7 -67z m290 48 c140 -64 135 -268 -8 -339 -38 -19 -63 -24 -128
-24 -45 0 -84 3 -87 6 -6 6 12 262 23 339 l6 37 76 0 c53 0 90 -6 118 -19z
m353 6 c39 -20 64 -61 64 -106 0 -48 -21 -83 -61 -102 l-30 -15 39 -64 c21
-36 39 -69 39 -73 0 -4 -21 -7 -46 -5 -46 3 -46 3 -81 71 -48 92 -68 92 -78
-3 l-7 -70 -40 0 -41 0 6 88 c16 225 19 268 23 280 5 16 180 16 213 -1z m212
-105 c15 -61 29 -118 32 -125 4 -13 31 44 78 166 l30 77 45 0 c54 0 55 7 -23
-159 -30 -64 -64 -140 -75 -168 -19 -53 -20 -53 -63 -53 l-43 0 -42 173 c-23
94 -44 180 -47 190 -4 16 1 18 38 15 l42 -3 28 -113z m489 78 l0 -39 -82 -3
-83 -3 -3 -32 -3 -33 81 0 81 0 -3 -32 -3 -33 -82 -3 -83 -3 0 -39 0 -39 83
-3 82 -3 -3 -35 c-2 -19 -6 -37 -7 -39 -5 -4 -235 -4 -240 1 -1 1 3 66 11 143
7 77 13 161 14 188 l0 47 120 0 120 0 0 -40z m-1317 -492 c-21 -35 -57 -64
-93 -72 -23 -6 -23 -5 -6 6 46 31 78 63 93 92 9 17 18 25 20 18 3 -7 -4 -26
-14 -44z m177 28 c0 -23 3 -24 35 -19 23 4 35 2 35 -6 0 -6 -16 -11 -35 -11
-33 0 -35 -2 -35 -35 0 -19 -4 -35 -10 -35 -5 0 -10 16 -10 35 0 33 -2 35 -36
35 -19 0 -33 4 -30 8 3 5 19 7 36 4 27 -4 30 -2 30 22 0 14 5 26 10 26 6 0 10
-11 10 -24z m381 -4 c-17 -33 -80 -82 -104 -81 -21 0 -21 1 -2 12 10 7 40 31
64 54 48 44 60 48 42 15z m370 6 c23 -29 24 -66 2 -90 -18 -20 -43 -24 -43 -7
0 6 -6 9 -12 6 -7 -2 -24 -7 -38 -11 l-25 -7 24 19 c18 15 22 24 16 43 -7 20
-6 22 7 12 8 -7 18 -10 21 -6 14 13 6 23 -17 23 -14 0 -28 5 -31 10 -4 6 8 10
29 10 20 0 36 5 36 10 0 16 10 12 31 -12z m39 1 c0 -5 -4 -9 -10 -9 -5 0 -10
7 -10 16 0 8 5 12 10 9 6 -3 10 -10 10 -16z m-1363 -1 c-18 -49 -17 -57 3 -68
11 -6 20 -16 20 -22 0 -6 -10 -4 -24 5 -19 13 -25 13 -37 2 -8 -7 -25 -16 -39
-20 -24 -6 -24 -6 5 19 27 24 28 27 12 37 -9 5 -15 15 -11 20 4 6 11 6 20 -2
11 -9 16 -6 25 15 12 26 36 38 26 14z m723 -48 c0 -33 -4 -60 -10 -60 -6 0
-10 27 -10 60 0 33 4 60 10 60 6 0 10 -27 10 -60z m80 45 c0 -16 -17 -19 -44
-9 -26 10 -18 24 14 24 20 0 30 -5 30 -15z m91 2 c-1 -12 -15 -9 -19 4 -3 6 1
10 8 8 6 -3 11 -8 11 -12z m249 -11 c0 -23 -42 -68 -78 -83 -42 -18 -54 -10
-15 10 32 18 73 54 73 66 0 5 -21 9 -46 9 -70 2 -66 12 4 12 46 0 62 -4 62
-14z m-1011 -5 c7 -5 12 -14 9 -21 -2 -7 -10 -4 -22 9 -19 21 -12 28 13 12z
m81 -5 c0 -21 -55 -73 -86 -80 -39 -10 -38 -3 6 24 21 13 44 34 51 47 14 26
29 30 29 9z m150 -6 c0 -5 -16 -10 -35 -10 -19 0 -35 5 -35 10 0 6 16 10 35
10 19 0 35 -4 35 -10z m403 -30 c-5 -20 -21 -36 -27 -29 -2 2 0 14 5 27 10 27
29 29 22 2z"/>
<path d="M2747 3019 c3 -41 0 -94 -6 -119 -5 -24 -8 -46 -6 -48 1 -2 19 0 39
3 45 9 46 26 10 133 -36 109 -42 113 -37 31z"/>
<path d="M2426 2989 c-8 -44 -8 -177 2 -182 4 -3 7 44 7 104 0 60 -1 109 -1
109 -1 0 -4 -14 -8 -31z"/>
<path d="M2308 2980 c-28 -74 -40 -112 -37 -114 2 -2 19 -8 37 -14 31 -11 32
-10 26 14 -3 13 -9 48 -13 77 -4 28 -10 45 -13 37z"/>
<path d="M2357 2914 c-4 -4 -7 -25 -7 -46 0 -42 0 -42 -50 -28 -29 8 -37 7
-47 -7 -23 -30 -15 -42 35 -49 55 -8 109 -28 134 -51 17 -15 18 -14 18 11 0
16 -9 40 -20 55 -10 15 -27 49 -38 75 -10 26 -21 44 -25 40z"/>
<path d="M1543 2985 c-22 -15 -36 -62 -22 -71 5 -3 9 -12 9 -21 0 -14 -3 -14
-21 3 -22 20 -51 11 -57 -20 -3 -14 7 -16 67 -16 l71 0 0 70 c0 75 -7 83 -47
55z m20 -22 c-7 -2 -13 -12 -13 -20 0 -13 3 -13 15 -3 12 10 15 10 15 -3 0
-24 -20 -31 -38 -14 -13 13 -13 19 -2 31 7 9 18 16 24 15 7 0 6 -2 -1 -6z
m-77 -90 c-10 -10 -19 5 -10 18 6 11 8 11 12 0 2 -7 1 -15 -2 -18z"/>
<path d="M3490 2656 c0 -31 6 -34 53 -29 31 4 37 9 37 29 0 22 -4 24 -45 24
-41 0 -45 -2 -45 -24z"/>
<path d="M3508 2603 c-30 -3 -38 -9 -38 -24 0 -16 7 -19 56 -19 52 0 55 1 52
22 -3 24 -12 27 -70 21z"/>
<path d="M1457 2634 c-18 -19 -5 -34 29 -34 28 0 35 3 32 18 -3 17 -48 29 -61
16z"/>
<path d="M1537 2634 c-4 -4 -7 -16 -7 -26 0 -14 -8 -18 -39 -18 -38 0 -40 -2
-39 -30 l1 -30 69 0 c78 0 83 5 70 65 -6 29 -13 41 -28 43 -11 2 -23 0 -27 -4z
m30 -46 c-3 -7 -5 -2 -5 12 0 14 2 19 5 13 2 -7 2 -19 0 -25z"/>
<path d="M1520 2494 c0 -11 9 -14 37 -12 52 4 56 28 4 28 -30 0 -41 -4 -41
-16z"/>
<path d="M1617 2005 c-4 -11 -11 -30 -17 -42 -8 -21 -7 -23 20 -23 33 0 36 9
16 55 -11 27 -13 28 -19 10z"/>
<path d="M2436 2068 c-3 -13 -7 -62 -10 -110 l-5 -88 42 0 c91 0 146 75 113
153 -25 60 -130 93 -140 45z"/>
<path d="M2780 2050 c0 -34 4 -41 24 -46 44 -11 96 14 96 47 0 24 -30 39 -79
39 l-41 0 0 -40z"/>
<path d="M3211 1632 c-6 -11 -11 -28 -11 -36 0 -25 20 -18 31 11 12 33 -4 54
-20 25z"/>
</g>
</svg>
