<svg xmlns="http://www.w3.org/2000/svg" xmlns:xlink="http://www.w3.org/1999/xlink" viewBox="0 0 500 500" width="500" height="500" preserveAspectRatio="xMidYMid meet" style="width: 100%; height: 100%; transform: translate3d(0px, 0px, 0px); content-visibility: visible;"><defs><clipPath id="__lottie_element_3935"><rect width="500" height="500" x="0" y="0"/></clipPath><clipPath id="__lottie_element_3946"><path d="M0,0 L500,0 L500,500 L0,500z"/></clipPath></defs><g clip-path="url(#__lottie_element_3935)"><g transform="matrix(4.599999904632568,0,0,4.599999904632568,250,250)" opacity="1" style="display: block;"><g opacity="1" transform="matrix(1,0,0,1,0,0)"><path stroke-linecap="round" stroke-linejoin="round" fill-opacity="0" stroke="#ffffff" stroke-opacity="1" stroke-width="7" d=" M-28.5,0 C-28.5,-12.656000137329102 -20.23200035095215,-23.395999908447266 -8.807999610900879,-27.110000610351562"/></g></g><g transform="matrix(-4.599999904632568,0,0,-4.599999904632568,250,250)" opacity="1" style="display: block;"><g opacity="1" transform="matrix(1,0,0,1,0,0)"><path stroke-linecap="round" stroke-linejoin="round" fill-opacity="0" stroke="#ffffff" stroke-opacity="1" stroke-width="7" d=" M-28.5,0 C-28.5,-12.656000137329102 -20.23200035095215,-23.395999908447266 -8.807999610900879,-27.110000610351562"/></g></g><g clip-path="url(#__lottie_element_3946)" transform="matrix(1,0,0,1,0,0)" opacity="1" style="display: block;"/></g></svg>