<?xml version="1.0" standalone="no"?>
<!DOCTYPE svg PUBLIC "-//W3C//DTD SVG 20010904//EN"
 "http://www.w3.org/TR/2001/REC-SVG-20010904/DTD/svg10.dtd">
<svg version="1.0" xmlns="http://www.w3.org/2000/svg"
 width="379.000000pt" height="339.000000pt" viewBox="0 0 379.000000 339.000000"
 preserveAspectRatio="xMidYMid meet">

<g transform="translate(0.000000,339.000000) scale(0.100000,-0.100000)"
fill="#ff0000" stroke="none">
<path d="M1842 2940 c-216 -57 -412 -206 -516 -394 -81 -144 -110 -303 -104
-571 2 -117 7 -168 18 -190 37 -73 144 -99 209 -51 66 49 65 48 72 311 3 132
11 256 17 275 40 123 134 237 239 293 113 59 156 67 347 67 l171 0 3 -432 c2
-392 4 -435 20 -463 53 -91 177 -100 241 -19 21 26 21 34 21 610 l0 584 -332
-1 c-294 0 -341 -2 -406 -19z"/>
<path d="M1925 2026 c-144 -66 -116 -288 39 -313 72 -12 175 54 192 123 16 64
-11 135 -69 178 -33 25 -121 32 -162 12z"/>
<path d="M1307 1373 c-9 -9 -9 -55 1 -69 16 -24 43 -24 68 1 28 28 30 38 8 59
-15 16 -65 22 -77 9z"/>
<path d="M1490 1361 c-15 -28 -12 -46 8 -64 27 -24 59 -21 78 8 15 23 15 27 0
50 -21 31 -70 35 -86 6z"/>
<path d="M2492 1368 c-18 -18 -14 -53 8 -73 25 -23 67 -13 82 20 9 21 8 28 -7
45 -20 22 -64 27 -83 8z"/>
<path d="M563 1362 c-13 -8 -206 -414 -216 -454 -10 -37 24 -65 58 -50 21 10
56 54 67 84 2 4 53 10 114 14 l112 7 27 -47 c15 -25 35 -51 44 -56 22 -11 65
9 69 32 4 21 -183 424 -211 456 -21 22 -43 28 -64 14z m73 -251 c13 -29 21
-57 18 -62 -3 -5 -32 -9 -65 -9 -71 0 -72 5 -32 97 32 71 36 70 79 -26z"/>
<path d="M1677 1363 c-4 -3 -7 -111 -7 -238 0 -195 2 -235 15 -245 11 -9 47
-11 128 -8 96 3 119 8 150 27 76 47 127 133 127 214 0 51 -31 125 -72 172 -62
70 -101 85 -229 85 -58 0 -109 -3 -112 -7z m223 -108 c101 -52 108 -219 11
-270 -17 -8 -55 -15 -86 -15 l-55 0 0 150 0 150 50 0 c28 0 64 -7 80 -15z"/>
<path d="M2683 1230 c-13 -5 -23 -16 -23 -23 0 -25 122 -301 143 -324 25 -28
48 -29 71 -5 16 19 120 250 136 304 16 53 -54 82 -84 36 -14 -23 -58 -131 -71
-176 -3 -12 -10 -20 -14 -17 -5 2 -22 42 -40 88 -31 83 -61 128 -84 126 -7 0
-22 -4 -34 -9z"/>
<path d="M3206 1228 c-117 -31 -168 -187 -94 -291 58 -81 227 -96 286 -24 9
11 6 19 -18 42 -29 28 -29 28 -70 11 -22 -9 -49 -16 -58 -16 -18 0 -62 38 -62
53 0 4 53 7 118 7 127 0 142 5 142 50 -1 68 -63 143 -139 169 -39 13 -52 13
-105 -1z m108 -109 c14 -11 24 -25 21 -30 -7 -10 -138 -13 -148 -3 -10 10 5
35 27 44 36 15 72 11 100 -11z"/>
<path d="M1090 1223 c-8 -2 -25 -9 -38 -16 -17 -8 -25 -8 -34 1 -14 14 -57 15
-78 2 -12 -8 -15 -38 -15 -167 l0 -157 27 -15 c24 -14 28 -14 46 3 17 15 21
33 24 116 4 113 18 140 74 140 50 0 64 -28 64 -130 0 -48 6 -96 13 -110 16
-32 48 -37 71 -11 16 17 18 35 15 145 -4 116 -6 126 -29 151 -39 43 -97 63
-140 48z"/>
<path d="M2174 1216 c-18 -13 -19 -26 -17 -168 3 -142 4 -154 24 -170 25 -22
30 -22 53 -5 16 12 19 29 20 112 2 93 3 99 30 121 17 15 40 24 61 24 37 0 65
21 65 50 0 45 -63 65 -118 36 -24 -12 -30 -12 -47 0 -24 18 -46 18 -71 0z"/>
<path d="M1492 1208 c-8 -8 -12 -59 -12 -163 0 -134 2 -154 18 -168 24 -22 38
-21 62 3 18 18 20 33 20 158 0 108 -3 142 -16 160 -17 24 -53 29 -72 10z"/>
<path d="M2492 1208 c-17 -17 -16 -284 1 -318 16 -31 43 -37 68 -14 17 15 19
32 19 161 0 80 -5 153 -10 164 -12 22 -59 26 -78 7z"/>
</g>
</svg>
